<svg xmlns="http://www.w3.org/2000/svg" viewBox="0 0 1316 948"><title>图层 2</title><g id="图层_2" data-name="图层 2"><g id="图层_2-2" data-name="图层 2"><path d="M1316,630H0V0H1316ZM8,622H1308V8H8Z"/><path d="M169,294H0V176H169ZM8,286H161V184H8Z"/><path d="M268,82H210V24h58Zm-56-2h54V26H212Z"/><path d="M268,141H210V83h58Zm-56-2h54V85H212Z"/><path d="M268,200H210V142h58Zm-56-2h54V144H212Z"/><path d="M268,259H210V201h58Zm-56-2h54V203H212Z"/><path d="M268,319H210V261h58Zm-56-2h54V263H212Z"/><path d="M327,259H269V201h58Zm-56-2h54V203H271Z"/><path d="M327,319H269V261h58Zm-56-2h54V263H271Z"/><path d="M268,378H210V320h58Zm-56-2h54V322H212Z"/><path d="M327,141H269V83h58Zm-56-2h54V85H271Z"/><path d="M286,79H271V29h15Zm-13-2h11V31H273Z"/><rect x="296" y="29" width="33" height="48"/><path d="M322,343H272V328h50Zm-48-2h46V330H274Z"/><rect x="281.5" y="345.5" width="33" height="48" transform="translate(667.5 71.5) rotate(90)"/><path d="M327,200H269V142h58Zm-56-2h54V144H271Z"/><path d="M424,82H366V24h58Zm-56-2h54V26H368Z"/><path d="M483,82H425V24h58Zm-56-2h54V26H427Z"/><path d="M424,141H366V83h58Zm-56-2h54V85H368Z"/><path d="M424,200H366V142h58Zm-56-2h54V144H368Z"/><path d="M424,259H366V201h58Zm-56-2h54V203H368Z"/><path d="M424,319H366V261h58Zm-56-2h54V263H368Z"/><path d="M483,259H425V201h58Zm-56-2h54V203H427Z"/><path d="M483,319H425V261h58Zm-56-2h54V263H427Z"/><path d="M424,378H366V320h58Zm-56-2h54V322H368Z"/><path d="M483,378H425V320h58Zm-56-2h54V322H427Z"/><path d="M483,141H425V83h58Zm-56-2h54V85H427Z"/><path d="M483,200H425V142h58Zm-56-2h54V144H427Z"/><path d="M267,470H209V412h58Zm-56-2h54V414H211Z"/><path d="M326,470H268V412h58Zm-56-2h54V414H270Z"/><path d="M267,529H209V471h58Zm-56-2h54V473H211Z"/><path d="M267,588H209V530h58Zm-56-2h54V532H211Z"/><path d="M326,529H268V471h58Zm-56-2h54V473H270Z"/><path d="M326,588H268V530h58Zm-56-2h54V532H270Z"/><path d="M443,470H385V412h58Zm-56-2h54V414H387Z"/><path d="M502,470H444V412h58Zm-56-2h54V414H446Z"/><path d="M443,529H385V471h58Zm-56-2h54V473H387Z"/><path d="M443,588H385V530h58Zm-56-2h54V532H387Z"/><path d="M502,529H444V471h58Zm-56-2h54V473H446Z"/><path d="M502,588H444V530h58Zm-56-2h54V532H446Z"/><path d="M724,82H666V24h58Zm-56-2h54V26H668Z"/><path d="M783,82H725V24h58Zm-56-2h54V26H727Z"/><path d="M724,141H666V83h58Zm-56-2h54V85H668Z"/><path d="M724,200H666V142h58Zm-56-2h54V144H668Z"/><path d="M724,259H666V201h58Zm-56-2h54V203H668Z"/><path d="M724,319H666V261h58Zm-56-2h54V263H668Z"/><path d="M783,259H725V201h58Zm-56-2h54V203H727Z"/><path d="M783,319H725V261h58Zm-56-2h54V263H727Z"/><path d="M724,378H666V320h58Zm-56-2h54V322H668Z"/><path d="M783,378H725V320h58Zm-56-2h54V322H727Z"/><path d="M783,141H725V83h58Zm-56-2h54V85H727Z"/><path d="M783,200H725V142h58Zm-56-2h54V144H727Z"/><path d="M866,82H808V24h58Zm-56-2h54V26H810Z"/><path d="M925,82H867V24h58Zm-56-2h54V26H869Z"/><path d="M866,141H808V83h58Zm-56-2h54V85H810Z"/><path d="M866,200H808V142h58Zm-56-2h54V144H810Z"/><path d="M866,259H808V201h58Zm-56-2h54V203H810Z"/><path d="M866,319H808V261h58Zm-56-2h54V263H810Z"/><path d="M925,259H867V201h58Zm-56-2h54V203H869Z"/><path d="M925,319H867V261h58Zm-56-2h54V263H869Z"/><path d="M866,378H808V320h58Zm-56-2h54V322H810Z"/><path d="M925,378H867V320h58Zm-56-2h54V322H869Z"/><path d="M756,625H559V411H756Zm-193-4H752V415H563Z"/><path d="M1316,948H629V622h687Zm-679-8h671V630H637Z"/><path d="M989,625H817V411H989Zm-168-4H985V415H821Z"/><polygon points="989 521 817 521 817 517 819 517 989 517 989 521"/><path d="M925,141H867V83h58Zm-56-2h54V85H869Z"/><path d="M925,200H867V142h58Zm-56-2h54V144H869Z"/><path d="M1012,82H954V24h58Zm-56-2h54V26H956Z"/><path d="M1012,259H954V201h58Zm-56-2h54V203H956Z"/><path d="M1012,319H954V261h58Zm-56-2h54V263H956Z"/><path d="M1012,378H954V320h58Zm-56-2h54V322H956Z"/><path d="M1012,141H954V83h58Zm-56-2h54V85H956Z"/><path d="M1012,200H954V142h58Zm-56-2h54V144H956Z"/><path d="M572,82H514V24h58Zm-56-2h54V26H516Z"/><path d="M572,141H514V83h58Zm-56-2h54V85H516Z"/><path d="M572,200H514V142h58Zm-56-2h54V144H516Z"/><path d="M572,259H514V201h58Zm-56-2h54V203H516Z"/><path d="M572,319H514V261h58Zm-56-2h54V263H516Z"/><path d="M631,259H573V201h58Zm-56-2h54V203H575Z"/><path d="M631,319H573V261h58Zm-56-2h54V263H575Z"/><path d="M572,378H514V320h58Zm-56-2h54V322H516Z"/><path d="M631,141H573V83h58Zm-56-2h54V85H575Z"/><path d="M590,79H575V29h15Zm-13-2h11V31H577Z"/><rect x="600" y="29" width="33" height="48"/><rect x="1051" y="42" width="39" height="39"/><rect x="1065" y="183" width="247" height="7"/><rect x="1065" y="332" width="247" height="7"/><rect x="1051" y="319" width="39" height="39"/><rect x="1273" y="319" width="39" height="39"/><path d="M1061,120h-24V67h24Zm-22-2h20V69h-20Z"/><path d="M1093,413h-24V360h24Zm-22-2h20V362h-20Z"/><rect x="1062" y="5" width="5" height="414"/><rect x="1062" y="474" width="5" height="152"/><rect x="703.5" y="774.5" width="5" height="146" transform="translate(1553.5 141.5) rotate(90)"/><rect x="1224.5" y="745.5" width="5" height="174" transform="translate(2059.5 -394.5) rotate(90)"/><rect x="751" y="849" width="5" height="95" transform="translate(1507 1793) rotate(180)"/><rect x="814" y="625" width="5" height="319" transform="translate(1633 1569) rotate(180)"/><rect x="1140" y="625" width="5" height="319" transform="translate(2285 1569) rotate(180)"/><path d="M626,343H576V328h50Zm-48-2h46V330H578Z"/><rect x="585.5" y="345.5" width="33" height="48" transform="translate(971.5 -232.5) rotate(90)"/><path d="M631,200H573V142h58Zm-56-2h54V144H575Z"/><polygon points="169.01 630 161 630 161 0 169 0 169.01 4 169.01 630"/><path d="M169,514H0V396H169ZM8,506H161V404H8Z"/></g></g></svg>